<?xml version="1.0" encoding="UTF-8" standalone="no"?>
<!DOCTYPE svg PUBLIC "-//W3C//DTD SVG 20010904//EN"
              "http://www.w3.org/TR/2001/REC-SVG-20010904/DTD/svg10.dtd">

<svg xmlns="http://www.w3.org/2000/svg"
     width="512px" height="512px"
     viewBox="0 0 1188 1188">
  <path id="RECT"
        fill="white" stroke="black" stroke-width="15px"
        d="M 199.00,29.00
           C 199.00,29.00 199.00,1156.00 199.00,1156.00
             199.00,1156.00 996.00,1156.00 996.00,1156.00
             996.00,1156.00 996.00,29.00 996.00,29.00
             996.00,29.00 199.00,29.00 199.00,29.00 Z" />
  <path id="TEXT"
        fill="gray" stroke="black" stroke-width="1"
        d="M 393.00,140.00
           C 393.00,140.00 387.73,176.00 387.73,176.00
             387.73,176.00 377.73,247.00 377.73,247.00
             377.73,247.00 368.00,320.00 368.00,320.00
             368.00,320.00 381.00,320.00 381.00,320.00
             382.95,320.00 386.71,320.26 388.26,319.01
             389.96,317.64 390.11,314.05 390.42,312.00
             390.42,312.00 392.73,296.00 392.73,296.00
             392.73,296.00 399.73,247.00 399.73,247.00
             400.89,238.95 401.92,227.15 405.33,220.00
             409.85,210.52 424.20,201.49 430.00,215.02
             433.11,222.27 429.78,238.91 428.58,247.00
             428.58,247.00 424.58,275.00 424.58,275.00
             424.58,275.00 419.00,320.00 419.00,320.00
             419.00,320.00 441.00,320.00 441.00,320.00
             441.00,320.00 451.13,245.00 451.13,245.00
             452.67,233.91 455.62,221.06 454.00,210.00
             450.31,184.95 423.08,183.42 407.00,198.00
             407.00,198.00 410.73,169.00 410.73,169.00
             410.73,169.00 415.00,141.00 415.00,141.00
             415.00,141.00 393.00,140.00 393.00,140.00 Z
           M 691.00,140.00
           C 691.00,140.00 685.73,176.00 685.73,176.00
             685.73,176.00 675.73,247.00 675.73,247.00
             675.73,247.00 666.00,320.00 666.00,320.00
             666.00,320.00 679.00,320.00 679.00,320.00
             679.00,320.00 686.83,318.43 686.83,318.43
             686.83,318.43 689.13,307.00 689.13,307.00
             689.13,307.00 693.27,278.00 693.27,278.00
             693.27,278.00 705.87,189.00 705.87,189.00
             705.87,189.00 713.00,141.00 713.00,141.00
             713.00,141.00 691.00,140.00 691.00,140.00 Z
           M 468.00,189.00
           C 468.00,189.00 465.00,208.00 465.00,208.00
             465.00,208.00 479.00,208.00 479.00,208.00
             476.76,235.62 466.87,268.70 467.00,296.00
             467.09,314.50 478.62,324.64 497.00,321.39
             500.64,320.74 512.10,318.65 513.19,314.73
             513.89,312.24 509.07,301.09 508.00,298.00
             501.28,300.42 492.43,305.91 489.22,295.00
             489.02,293.51 489.02,291.55 489.22,290.00
             489.22,290.00 497.42,227.00 497.42,227.00
             497.42,227.00 500.00,208.00 500.00,208.00
             500.00,208.00 525.00,208.00 525.00,208.00
             525.00,208.00 527.00,189.00 527.00,189.00
             527.00,189.00 503.00,189.00 503.00,189.00
             503.00,189.00 508.00,153.00 508.00,153.00
             508.00,153.00 494.00,153.00 494.00,153.00
             486.76,153.13 487.62,154.61 486.25,163.00
             485.63,166.78 483.36,184.67 481.98,186.69
             479.75,189.96 471.66,189.00 468.00,189.00 Z
           M 560.00,199.00
           C 560.00,199.00 560.00,189.00 560.00,189.00
             560.00,189.00 540.00,189.00 540.00,189.00
             540.00,189.00 527.73,275.00 527.73,275.00
             527.73,275.00 522.00,320.00 522.00,320.00
             522.00,320.00 535.00,320.00 535.00,320.00
             536.95,320.00 540.71,320.26 542.26,319.01
             543.96,317.64 544.11,314.05 544.42,312.00
             544.42,312.00 546.73,296.00 546.73,296.00
             546.73,296.00 553.58,248.00 553.58,248.00
             554.90,238.60 555.33,228.71 559.49,220.00
             564.00,210.57 577.83,199.71 584.35,214.00
             585.09,215.63 585.66,218.21 585.81,220.00
             585.81,220.00 582.58,247.00 582.58,247.00
             582.58,247.00 578.27,276.00 578.27,276.00
             578.27,276.00 572.00,319.00 572.00,319.00
             572.00,319.00 594.00,320.00 594.00,320.00
             594.00,320.00 606.43,233.00 606.43,233.00
             607.94,224.09 613.79,208.78 624.00,207.24
             633.14,205.86 637.25,215.35 636.68,223.00
             636.68,223.00 631.27,262.00 631.27,262.00
             631.27,262.00 623.00,319.00 623.00,319.00
             623.00,319.00 645.00,320.00 645.00,320.00
             645.00,320.00 653.27,262.00 653.27,262.00
             653.27,262.00 659.00,219.00 659.00,219.00
             659.11,209.62 659.31,200.37 651.82,193.33
             638.55,180.87 613.72,188.08 608.00,205.00
             605.83,200.83 604.42,196.51 600.90,193.21
             592.63,185.47 578.35,185.54 569.00,191.21
             565.58,193.29 562.82,196.21 560.00,199.00 Z
           M 407.00,198.00
           C 407.00,198.00 407.00,199.00 407.00,199.00
             407.00,199.00 406.00,198.00 406.00,198.00
             406.00,198.00 407.00,198.00 407.00,198.00 Z
           M 344.00,305.00
           C 344.00,305.00 347.00,285.00 347.00,285.00
             347.00,285.00 304.00,258.00 304.00,258.00
             304.00,258.00 340.00,236.42 340.00,236.42
             343.04,234.68 352.36,229.92 354.02,227.47
             355.94,224.65 356.97,211.80 357.00,208.00
             351.20,209.38 346.14,212.92 341.00,215.85
             341.00,215.85 315.00,230.70 315.00,230.70
             315.00,230.70 289.43,245.63 289.43,245.63
             286.75,248.30 285.19,261.38 286.60,264.91
             288.13,268.76 298.27,274.85 302.00,277.33
             302.00,277.33 344.00,305.00 344.00,305.00 Z
           M 729.00,208.00
           C 729.00,208.00 726.00,227.00 726.00,227.00
             726.00,227.00 769.00,254.00 769.00,254.00
             769.00,254.00 769.00,256.00 769.00,256.00
             762.01,258.21 740.79,271.40 733.00,275.85
             729.58,277.80 720.87,282.16 719.01,285.21
             717.11,288.30 716.04,301.01 716.00,305.00
             716.00,305.00 765.00,277.70 765.00,277.70
             769.28,275.35 782.74,268.46 784.83,264.82
             786.41,262.05 787.62,249.07 785.98,246.18
             784.29,243.21 774.33,237.22 771.00,235.00
             771.00,235.00 744.00,216.66 744.00,216.66
             738.88,213.17 735.13,209.50 729.00,208.00 Z
           M 311.00,483.53
           C 307.13,484.68 304.10,485.88 301.42,489.10
             299.28,491.67 298.33,494.71 298.10,498.00
             297.26,509.93 307.95,517.01 319.00,514.47
             332.20,511.44 334.68,497.55 329.30,490.09
             325.01,484.14 317.88,482.43 311.00,483.53 Z
           M 379.00,483.63
           C 375.17,485.05 371.39,486.61 368.99,490.10
             359.75,503.57 373.36,518.44 388.00,514.21
             397.57,511.45 403.73,500.11 398.15,491.02
             394.02,484.29 386.34,482.17 379.00,483.63 Z
           M 448.00,483.53
           C 443.50,484.87 439.02,486.80 436.57,491.09
             435.23,493.44 435.09,495.38 435.02,498.00
             434.95,500.31 434.92,503.87 435.74,506.00
             438.46,513.04 448.12,516.04 455.00,514.47
             462.89,512.67 467.59,508.28 467.96,500.00
             468.12,496.46 467.95,493.19 465.85,490.18
             461.84,484.41 454.61,482.47 448.00,483.53 Z
           M 477.00,640.00
           C 477.00,640.00 471.73,676.00 471.73,676.00
             471.73,676.00 461.73,747.00 461.73,747.00
             461.73,747.00 452.00,820.00 452.00,820.00
             452.00,820.00 465.00,820.00 465.00,820.00
             466.95,820.00 470.71,820.26 472.26,819.01
             473.96,817.64 474.11,814.05 474.42,812.00
             474.42,812.00 476.73,796.00 476.73,796.00
             476.73,796.00 483.73,747.00 483.73,747.00
             484.89,738.95 485.92,727.15 489.33,720.00
             493.85,710.52 508.20,701.49 514.00,715.02
             517.11,722.27 513.78,738.91 512.58,747.00
             512.58,747.00 508.58,775.00 508.58,775.00
             508.58,775.00 503.00,820.00 503.00,820.00
             503.00,820.00 525.00,820.00 525.00,820.00
             525.00,820.00 535.13,745.00 535.13,745.00
             536.67,733.91 539.62,721.06 538.00,710.00
             534.31,684.95 507.08,683.42 491.00,698.00
             491.00,698.00 494.73,669.00 494.73,669.00
             494.73,669.00 499.00,641.00 499.00,641.00
             499.00,641.00 477.00,640.00 477.00,640.00 Z
           M 775.00,640.00
           C 775.00,640.00 769.73,676.00 769.73,676.00
             769.73,676.00 759.73,747.00 759.73,747.00
             759.73,747.00 750.00,820.00 750.00,820.00
             750.00,820.00 763.00,820.00 763.00,820.00
             763.00,820.00 770.83,818.43 770.83,818.43
             770.83,818.43 773.13,807.00 773.13,807.00
             773.13,807.00 777.27,778.00 777.27,778.00
             777.27,778.00 789.87,689.00 789.87,689.00
             789.87,689.00 797.00,641.00 797.00,641.00
             797.00,641.00 775.00,640.00 775.00,640.00 Z
           M 428.00,647.00
           C 428.00,647.00 408.69,703.00 408.69,703.00
             408.69,703.00 368.00,818.99 368.00,818.99
             371.52,820.00 383.52,821.07 386.49,818.99
             388.73,817.41 390.40,810.72 391.34,808.00
             391.34,808.00 400.66,782.00 400.66,782.00
             400.66,782.00 448.00,647.00 448.00,647.00
             448.00,647.00 428.00,647.00 428.00,647.00 Z
           M 552.00,689.00
           C 552.00,689.00 549.00,708.00 549.00,708.00
             549.00,708.00 563.00,708.00 563.00,708.00
             560.76,735.62 550.87,768.70 551.00,796.00
             551.09,814.50 562.62,824.64 581.00,821.39
             584.64,820.74 596.10,818.65 597.19,814.73
             597.89,812.24 593.07,801.09 592.00,798.00
             585.28,800.42 576.43,805.91 573.22,795.00
             573.02,793.51 573.02,791.55 573.22,790.00
             573.22,790.00 581.42,727.00 581.42,727.00
             581.42,727.00 584.00,708.00 584.00,708.00
             584.00,708.00 609.00,708.00 609.00,708.00
             609.00,708.00 611.00,689.00 611.00,689.00
             611.00,689.00 587.00,689.00 587.00,689.00
             587.00,689.00 592.00,653.00 592.00,653.00
             592.00,653.00 578.00,653.00 578.00,653.00
             570.76,653.13 571.62,654.61 570.25,663.00
             569.63,666.78 567.36,684.67 565.98,686.69
             563.75,689.96 555.66,689.00 552.00,689.00 Z
           M 644.00,699.00
           C 644.00,699.00 644.00,689.00 644.00,689.00
             644.00,689.00 624.00,689.00 624.00,689.00
             624.00,689.00 611.73,775.00 611.73,775.00
             611.73,775.00 606.00,820.00 606.00,820.00
             606.00,820.00 619.00,820.00 619.00,820.00
             620.95,820.00 624.71,820.26 626.26,819.01
             627.96,817.64 628.11,814.05 628.42,812.00
             628.42,812.00 630.73,796.00 630.73,796.00
             630.73,796.00 637.58,748.00 637.58,748.00
             638.90,738.60 639.33,728.71 643.49,720.00
             648.00,710.57 661.83,699.71 668.35,714.00
             669.09,715.63 669.66,718.21 669.81,720.00
             669.81,720.00 666.58,747.00 666.58,747.00
             666.58,747.00 662.27,776.00 662.27,776.00
             662.27,776.00 656.00,819.00 656.00,819.00
             656.00,819.00 678.00,820.00 678.00,820.00
             678.00,820.00 690.43,733.00 690.43,733.00
             691.94,724.09 697.79,708.78 708.00,707.24
             717.14,705.86 721.25,715.35 720.68,723.00
             720.68,723.00 715.27,762.00 715.27,762.00
             715.27,762.00 707.00,819.00 707.00,819.00
             707.00,819.00 729.00,820.00 729.00,820.00
             729.00,820.00 737.27,762.00 737.27,762.00
             737.27,762.00 743.00,719.00 743.00,719.00
             743.11,709.62 743.31,700.37 735.82,693.33
             722.55,680.87 697.72,688.08 692.00,705.00
             689.83,700.83 688.42,696.51 684.90,693.21
             676.63,685.47 662.35,685.54 653.00,691.21
             649.58,693.29 646.82,696.21 644.00,699.00 Z
           M 491.00,698.00
           C 491.00,698.00 491.00,699.00 491.00,699.00
             491.00,699.00 490.00,698.00 490.00,698.00
             490.00,698.00 491.00,698.00 491.00,698.00 Z
           M 344.00,805.00
           C 344.00,805.00 347.00,785.00 347.00,785.00
             347.00,785.00 304.00,758.00 304.00,758.00
             304.00,758.00 340.00,736.42 340.00,736.42
             343.04,734.68 352.36,729.92 354.02,727.47
             355.94,724.65 356.97,711.80 357.00,708.00
             351.20,709.38 346.14,712.92 341.00,715.85
             341.00,715.85 315.00,730.70 315.00,730.70
             315.00,730.70 289.43,745.63 289.43,745.63
             286.75,748.30 285.19,761.38 286.60,764.91
             288.13,768.76 298.27,774.85 302.00,777.33
             302.00,777.33 344.00,805.00 344.00,805.00 Z
           M 813.00,708.00
           C 813.00,708.00 810.00,727.00 810.00,727.00
             810.00,727.00 853.00,754.00 853.00,754.00
             853.00,754.00 853.00,756.00 853.00,756.00
             846.01,758.21 824.79,771.40 817.00,775.85
             813.58,777.80 804.87,782.16 803.01,785.21
             801.11,788.30 800.04,801.01 800.00,805.00
             800.00,805.00 849.00,777.70 849.00,777.70
             853.28,775.35 866.74,768.46 868.83,764.82
             870.41,762.05 871.62,749.07 869.98,746.18
             868.29,743.21 858.33,737.22 855.00,735.00
             855.00,735.00 828.00,716.66 828.00,716.66
             822.88,713.17 819.13,709.50 813.00,708.00 Z" />
</svg>
