<?xml version="1.0" encoding="UTF-8" standalone="no"?>
<!DOCTYPE svg PUBLIC "-//W3C//DTD SVG 20010904//EN" "http://www.w3.org/TR/2001/REC-SVG-20010904/DTD/svg10.dtd">

<svg xmlns="http://www.w3.org/2000/svg"
  width="512px" height="512px"
  viewBox="0 0 1188 1188">

  <path id="RECT"
    fill="white" stroke="black" stroke-width="15px"
    d="M 199.00,29.00
        C 199.00,29.00 199.00,1156.00 199.00,1156.00
          199.00,1156.00 996.00,1156.00 996.00,1156.00
          996.00,1156.00 996.00,29.00 996.00,29.00
          996.00,29.00 199.00,29.00 199.00,29.00 Z" />

  <path id="TEXT"
    fill="gray" stroke="black" stroke-width="1"
    d="M 299.00,180.53
           C 289.51,183.57 287.64,192.47 293.28,197.35
             296.38,200.04 302.12,200.51 306.00,199.61
             313.53,197.86 315.79,189.33 311.49,184.22
             308.30,180.43 303.57,179.88 299.00,180.53 Z
           M 340.00,180.54
           C 337.67,181.23 335.24,181.91 333.43,183.65
             330.19,186.76 330.15,194.25 333.43,197.35
             336.36,200.12 342.23,200.43 346.00,199.66
             354.60,197.89 355.72,188.96 351.57,184.22
             348.48,180.70 344.38,180.02 340.00,180.54 Z
           M 380.00,180.53
           C 365.86,185.06 369.20,201.01 384.00,199.90
             391.74,199.33 397.58,191.27 392.26,184.34
             389.29,180.46 384.46,179.90 380.00,180.53 Z
           M 427.00,180.53
           C 417.51,183.57 415.64,192.47 421.28,197.35
             424.38,200.04 430.12,200.51 434.00,199.61
             441.53,197.86 443.79,189.33 439.49,184.22
             436.30,180.43 431.57,179.88 427.00,180.53 Z
           M 468.00,180.54
           C 465.67,181.23 463.24,181.91 461.43,183.65
             458.19,186.76 458.15,194.25 461.43,197.35
             464.36,200.12 470.23,200.43 474.00,199.66
             482.60,197.89 483.72,188.96 479.57,184.22
             476.48,180.70 472.38,180.02 468.00,180.54 Z
           M 508.00,180.53
           C 493.86,185.06 497.20,201.01 512.00,199.90
             519.74,199.33 525.58,191.27 520.26,184.34
             517.34,180.53 512.39,179.91 508.00,180.53 Z
           M 555.00,180.53
           C 545.51,183.57 543.64,192.47 549.28,197.35
             552.38,200.04 558.12,200.51 562.00,199.61
             569.53,197.86 571.79,189.33 567.49,184.22
             564.30,180.43 559.57,179.88 555.00,180.53 Z
           M 596.00,180.54
           C 593.67,181.23 591.24,181.91 589.43,183.65
             586.19,186.76 586.15,194.25 589.43,197.35
             592.36,200.12 598.23,200.43 602.00,199.66
             610.60,197.89 611.72,188.96 607.57,184.22
             604.48,180.70 600.38,180.02 596.00,180.54 Z
           M 636.00,180.53
           C 621.86,185.06 625.20,201.01 640.00,199.90
             647.74,199.33 653.58,191.27 648.26,184.34
             645.34,180.53 640.39,179.91 636.00,180.53 Z
           M 683.00,180.53
           C 673.51,183.57 671.64,192.47 677.28,197.35
             680.38,200.04 686.12,200.51 690.00,199.61
             697.53,197.86 699.79,189.33 695.49,184.22
             692.30,180.43 687.57,179.88 683.00,180.53 Z
           M 724.00,180.54
           C 721.67,181.23 719.24,181.91 717.43,183.65
             714.19,186.76 714.15,194.25 717.43,197.35
             720.36,200.12 726.23,200.43 730.00,199.66
             738.60,197.89 739.72,188.96 735.57,184.22
             732.48,180.70 728.38,180.02 724.00,180.54 Z
           M 764.00,180.53
           C 749.86,185.06 753.20,201.01 768.00,199.90
             775.74,199.33 781.58,191.27 776.26,184.34
             773.29,180.46 768.46,179.90 764.00,180.53 Z
           M 811.00,180.53
           C 801.51,183.57 799.64,192.47 805.28,197.35
             808.38,200.04 814.12,200.51 818.00,199.61
             825.53,197.86 827.79,189.33 823.49,184.22
             820.30,180.43 815.57,179.88 811.00,180.53 Z
           M 852.00,180.54
           C 849.67,181.23 847.24,181.91 845.43,183.65
             842.19,186.76 842.15,194.25 845.43,197.35
             848.36,200.12 854.23,200.43 858.00,199.66
             866.60,197.89 867.72,188.96 863.57,184.22
             860.48,180.70 856.38,180.02 852.00,180.54 Z
           M 892.00,180.53
           C 877.86,185.06 881.20,201.01 896.00,199.90
             903.74,199.33 909.58,191.27 904.26,184.34
             901.29,180.46 896.46,179.90 892.00,180.53 Z
           M 299.00,326.53
           C 289.51,329.57 287.64,338.47 293.28,343.35
             296.38,346.04 302.12,346.51 306.00,345.61
             313.53,343.86 315.79,335.33 311.49,330.22
             308.30,326.43 303.57,325.88 299.00,326.53 Z
           M 340.00,326.54
           C 337.67,327.23 335.24,327.91 333.43,329.65
             330.19,332.76 330.15,340.25 333.43,343.35
             336.36,346.12 342.23,346.43 346.00,345.66
             354.60,343.89 355.72,334.96 351.57,330.22
             348.48,326.70 344.38,326.02 340.00,326.54 Z
           M 380.00,326.53
           C 365.86,331.06 369.20,347.01 384.00,345.90
             391.74,345.33 397.58,337.27 392.26,330.34
             389.34,326.53 384.39,325.91 380.00,326.53 Z
           M 427.00,326.53
           C 417.51,329.57 415.64,338.47 421.28,343.35
             424.38,346.04 430.12,346.51 434.00,345.61
             441.53,343.86 443.79,335.33 439.49,330.22
             436.30,326.43 431.57,325.88 427.00,326.53 Z
           M 468.00,326.54
           C 465.67,327.23 463.24,327.91 461.43,329.65
             458.19,332.76 458.15,340.25 461.43,343.35
             464.36,346.12 470.23,346.43 474.00,345.66
             482.60,343.89 483.72,334.96 479.57,330.22
             476.48,326.70 472.38,326.02 468.00,326.54 Z
           M 508.00,326.53
           C 493.86,331.06 497.20,347.01 512.00,345.90
             519.74,345.33 525.58,337.27 520.26,330.34
             517.29,326.46 512.46,325.90 508.00,326.53 Z
           M 555.00,326.53
           C 545.51,329.57 543.64,338.47 549.28,343.35
             552.38,346.04 558.12,346.51 562.00,345.61
             569.53,343.86 571.79,335.33 567.49,330.22
             564.30,326.43 559.57,325.88 555.00,326.53 Z
           M 596.00,326.54
           C 593.67,327.23 591.24,327.91 589.43,329.65
             586.19,332.76 586.15,340.25 589.43,343.35
             592.36,346.12 598.23,346.43 602.00,345.66
             610.60,343.89 611.72,334.96 607.57,330.22
             604.48,326.70 600.38,326.02 596.00,326.54 Z
           M 636.00,326.53
           C 621.86,331.06 625.20,347.01 640.00,345.90
             647.74,345.33 653.58,337.27 648.26,330.34
             645.29,326.46 640.46,325.90 636.00,326.53 Z
           M 683.00,326.53
           C 673.51,329.57 671.64,338.47 677.28,343.35
             680.38,346.04 686.12,346.51 690.00,345.61
             697.53,343.86 699.79,335.33 695.49,330.22
             692.30,326.43 687.57,325.88 683.00,326.53 Z
           M 724.00,326.54
           C 721.67,327.23 719.24,327.91 717.43,329.65
             714.19,332.76 714.15,340.25 717.43,343.35
             720.36,346.12 726.23,346.43 730.00,345.66
             738.60,343.89 739.72,334.96 735.57,330.22
             732.48,326.70 728.38,326.02 724.00,326.54 Z
           M 764.00,326.53
           C 749.86,331.06 753.20,347.01 768.00,345.90
             775.74,345.33 781.58,337.27 776.26,330.34
             773.29,326.46 768.46,325.90 764.00,326.53 Z
           M 811.00,326.53
           C 801.51,329.57 799.64,338.47 805.28,343.35
             808.38,346.04 814.12,346.51 818.00,345.61
             825.53,343.86 827.79,335.33 823.49,330.22
             820.30,326.43 815.57,325.88 811.00,326.53 Z
           M 852.00,326.54
           C 849.67,327.23 847.24,327.91 845.43,329.65
             842.19,332.76 842.15,340.25 845.43,343.35
             848.36,346.12 854.23,346.43 858.00,345.66
             866.60,343.89 867.72,334.96 863.57,330.22
             860.48,326.70 856.38,326.02 852.00,326.54 Z
           M 892.00,326.53
           C 877.86,331.06 881.20,347.01 896.00,345.90
             903.74,345.33 909.58,337.27 904.26,330.34
             901.29,326.46 896.46,325.90 892.00,326.53 Z
           M 299.00,472.53
           C 289.51,475.57 287.64,484.47 293.28,489.35
             296.38,492.04 302.12,492.51 306.00,491.61
             313.53,489.86 315.79,481.33 311.49,476.22
             308.30,472.43 303.57,471.88 299.00,472.53 Z
           M 340.00,472.54
           C 337.67,473.23 335.24,473.91 333.43,475.65
             330.19,478.76 330.15,486.25 333.43,489.35
             336.36,492.12 342.23,492.43 346.00,491.66
             354.60,489.89 355.72,480.96 351.57,476.22
             348.48,472.70 344.38,472.02 340.00,472.54 Z
           M 380.00,472.53
           C 365.86,477.06 369.20,493.01 384.00,491.90
             391.74,491.33 397.58,483.27 392.26,476.34
             389.29,472.46 384.46,471.90 380.00,472.53 Z
           M 427.00,472.53
           C 417.51,475.57 415.64,484.47 421.28,489.35
             424.38,492.04 430.12,492.51 434.00,491.61
             441.53,489.86 443.79,481.33 439.49,476.22
             436.30,472.43 431.57,471.88 427.00,472.53 Z
           M 468.00,472.54
           C 465.67,473.23 463.24,473.91 461.43,475.65
             458.19,478.76 458.15,486.25 461.43,489.35
             464.36,492.12 470.23,492.43 474.00,491.66
             482.60,489.89 483.72,480.96 479.57,476.22
             476.48,472.70 472.38,472.02 468.00,472.54 Z
           M 508.00,472.53
           C 493.86,477.06 497.20,493.01 512.00,491.90
             519.74,491.33 525.58,483.27 520.26,476.34
             517.34,472.53 512.39,471.91 508.00,472.53 Z
           M 555.00,472.53
           C 545.51,475.57 543.64,484.47 549.28,489.35
             552.38,492.04 558.12,492.51 562.00,491.61
             569.53,489.86 571.79,481.33 567.49,476.22
             564.30,472.43 559.57,471.88 555.00,472.53 Z
           M 596.00,472.54
           C 593.67,473.23 591.24,473.91 589.43,475.65
             586.19,478.76 586.15,486.25 589.43,489.35
             592.36,492.12 598.23,492.43 602.00,491.66
             610.60,489.89 611.72,480.96 607.57,476.22
             604.48,472.70 600.38,472.02 596.00,472.54 Z
           M 636.00,472.53
           C 621.86,477.06 625.20,493.01 640.00,491.90
             647.74,491.33 653.58,483.27 648.26,476.34
             645.29,472.46 640.46,471.90 636.00,472.53 Z
           M 683.00,472.53
           C 673.51,475.57 671.64,484.47 677.28,489.35
             680.38,492.04 686.12,492.51 690.00,491.61
             697.53,489.86 699.79,481.33 695.49,476.22
             692.30,472.43 687.57,471.88 683.00,472.53 Z
           M 724.00,472.54
           C 721.67,473.23 719.24,473.91 717.43,475.65
             714.19,478.76 714.15,486.25 717.43,489.35
             720.36,492.12 726.23,492.43 730.00,491.66
             738.60,489.89 739.72,480.96 735.57,476.22
             732.48,472.70 728.38,472.02 724.00,472.54 Z
           M 764.00,472.53
           C 749.86,477.06 753.20,493.01 768.00,491.90
             775.74,491.33 781.58,483.27 776.26,476.34
             773.34,472.53 768.39,471.91 764.00,472.53 Z
           M 811.00,472.53
           C 801.51,475.57 799.64,484.47 805.28,489.35
             808.38,492.04 814.12,492.51 818.00,491.61
             825.53,489.86 827.79,481.33 823.49,476.22
             820.30,472.43 815.57,471.88 811.00,472.53 Z
           M 852.00,472.54
           C 849.67,473.23 847.24,473.91 845.43,475.65
             842.19,478.76 842.15,486.25 845.43,489.35
             848.36,492.12 854.23,492.43 858.00,491.66
             866.60,489.89 867.72,480.96 863.57,476.22
             860.48,472.70 856.38,472.02 852.00,472.54 Z
           M 892.00,472.53
           C 877.86,477.06 881.20,493.01 896.00,491.90
             903.74,491.33 909.58,483.27 904.26,476.34
             901.29,472.46 896.46,471.90 892.00,472.53 Z
           M 299.00,618.53
           C 289.51,621.57 287.64,630.47 293.28,635.35
             296.38,638.04 302.12,638.51 306.00,637.61
             313.53,635.86 315.79,627.33 311.49,622.22
             308.30,618.43 303.57,617.88 299.00,618.53 Z
           M 340.00,618.54
           C 337.67,619.23 335.24,619.91 333.43,621.65
             330.19,624.76 330.15,632.25 333.43,635.35
             336.36,638.12 342.23,638.43 346.00,637.66
             354.60,635.89 355.72,626.96 351.57,622.22
             348.48,618.70 344.38,618.02 340.00,618.54 Z
           M 380.00,618.53
           C 365.86,623.06 369.20,639.01 384.00,637.90
             391.74,637.33 397.58,629.27 392.26,622.34
             389.29,618.46 384.46,617.90 380.00,618.53 Z
           M 427.00,618.53
           C 417.51,621.57 415.64,630.47 421.28,635.35
             424.38,638.04 430.12,638.51 434.00,637.61
             441.53,635.86 443.79,627.33 439.49,622.22
             436.30,618.43 431.57,617.88 427.00,618.53 Z
           M 468.00,618.54
           C 465.67,619.23 463.24,619.91 461.43,621.65
             458.19,624.76 458.15,632.25 461.43,635.35
             464.36,638.12 470.23,638.43 474.00,637.66
             482.60,635.89 483.72,626.96 479.57,622.22
             476.48,618.70 472.38,618.02 468.00,618.54 Z
           M 508.00,618.53
           C 493.86,623.06 497.20,639.01 512.00,637.90
             519.74,637.33 525.58,629.27 520.26,622.34
             517.29,618.46 512.46,617.90 508.00,618.53 Z
           M 555.00,618.53
           C 545.51,621.57 543.64,630.47 549.28,635.35
             552.38,638.04 558.12,638.51 562.00,637.61
             569.53,635.86 571.79,627.33 567.49,622.22
             564.30,618.43 559.57,617.88 555.00,618.53 Z
           M 596.00,618.54
           C 593.67,619.23 591.24,619.91 589.43,621.65
             586.19,624.76 586.15,632.25 589.43,635.35
             592.36,638.12 598.23,638.43 602.00,637.66
             610.60,635.89 611.72,626.96 607.57,622.22
             604.48,618.70 600.38,618.02 596.00,618.54 Z
           M 636.00,618.53
           C 621.86,623.06 625.20,639.01 640.00,637.90
             647.74,637.33 653.58,629.27 648.26,622.34
             645.29,618.46 640.46,617.90 636.00,618.53 Z
           M 391.00,759.00
           C 391.00,759.00 385.75,794.00 385.75,794.00
             385.25,797.07 384.26,806.59 382.83,808.69
             381.05,811.30 377.80,810.98 375.00,811.00
             375.00,811.00 363.00,811.00 363.00,811.00
             363.00,811.00 359.00,838.00 359.00,838.00
             359.00,838.00 379.00,838.00 379.00,838.00
             379.00,838.00 366.73,916.00 366.73,916.00
             366.73,916.00 361.00,956.00 361.00,956.00
             360.88,966.29 360.57,975.47 365.38,985.00
             377.37,1008.77 409.63,1003.04 429.00,993.00
             429.00,993.00 420.00,968.00 420.00,968.00
             413.02,969.66 405.29,976.10 398.05,971.26
             392.43,967.51 391.88,959.14 392.01,953.00
             392.01,953.00 395.73,925.00 395.73,925.00
             395.73,925.00 403.87,871.00 403.87,871.00
             403.87,871.00 407.13,849.00 407.13,849.00
             407.47,846.55 407.88,841.30 409.60,839.60
             411.54,837.67 415.45,838.01 418.00,838.00
             418.00,838.00 444.00,838.00 444.00,838.00
             444.00,838.00 448.00,811.00 448.00,811.00
             448.00,811.00 413.00,811.00 413.00,811.00
             413.00,811.00 420.00,759.00 420.00,759.00
             420.00,759.00 391.00,759.00 391.00,759.00 Z
           M 604.00,759.00
           C 604.00,759.00 598.75,794.00 598.75,794.00
             598.25,797.07 597.26,806.59 595.83,808.69
             594.05,811.30 590.80,810.98 588.00,811.00
             588.00,811.00 576.00,811.00 576.00,811.00
             576.00,811.00 572.00,838.00 572.00,838.00
             572.00,838.00 592.00,838.00 592.00,838.00
             592.00,838.00 579.73,916.00 579.73,916.00
             579.73,916.00 574.00,956.00 574.00,956.00
             573.88,966.29 573.57,975.47 578.38,985.00
             590.37,1008.77 622.63,1003.04 642.00,993.00
             642.00,993.00 633.00,968.00 633.00,968.00
             626.02,969.66 618.29,976.10 611.05,971.26
             605.43,967.51 604.88,959.14 605.01,953.00
             605.01,953.00 608.73,925.00 608.73,925.00
             608.73,925.00 616.87,871.00 616.87,871.00
             616.87,871.00 620.13,849.00 620.13,849.00
             620.47,846.55 620.88,841.30 622.60,839.60
             624.54,837.67 628.45,838.01 631.00,838.00
             631.00,838.00 657.00,838.00 657.00,838.00
             657.00,838.00 661.00,811.00 661.00,811.00
             661.00,811.00 626.00,811.00 626.00,811.00
             626.00,811.00 633.00,759.00 633.00,759.00
             633.00,759.00 604.00,759.00 604.00,759.00 Z
           M 456.00,811.00
           C 456.00,811.00 462.98,834.00 462.98,834.00
             462.98,834.00 477.02,878.00 477.02,878.00
             477.02,878.00 482.67,895.00 482.67,895.00
             482.67,895.00 484.84,903.58 484.84,903.58
             484.84,903.58 480.70,912.00 480.70,912.00
             480.70,912.00 470.00,931.00 470.00,931.00
             470.00,931.00 447.58,971.00 447.58,971.00
             447.58,971.00 433.00,998.00 433.00,998.00
             433.00,998.00 456.00,998.00 456.00,998.00
             466.71,997.98 464.74,996.89 472.58,983.00
             472.58,983.00 497.00,937.00 497.00,937.00
             497.00,937.00 510.72,982.00 510.72,982.00
             510.72,982.00 516.51,996.98 516.51,996.98
             516.51,996.98 524.00,998.00 524.00,998.00
             524.00,998.00 547.00,998.00 547.00,998.00
             547.00,998.00 526.67,934.00 526.67,934.00
             526.67,934.00 518.23,907.17 518.23,907.17
             517.67,903.65 519.90,900.92 521.58,898.00
             521.58,898.00 531.28,881.00 531.28,881.00
             531.28,881.00 571.00,811.00 571.00,811.00
             571.00,811.00 547.00,811.00 547.00,811.00
             536.98,811.02 538.05,812.71 530.31,827.00
             530.31,827.00 505.00,873.00 505.00,873.00
             505.00,873.00 487.00,811.00 487.00,811.00
             487.00,811.00 456.00,811.00 456.00,811.00 Z
           M 301.00,955.53
           C 288.96,959.13 283.14,968.85 283.00,981.00
             282.88,991.98 286.46,1000.62 299.00,1000.80
             301.19,1001.05 304.93,1001.06 307.00,1000.80
             322.79,997.18 331.71,969.44 318.82,958.56
             313.89,954.40 307.01,954.55 301.00,955.53 Z" />

</svg>