<?xml version="1.0" encoding="UTF-8" standalone="no"?>
<!DOCTYPE svg PUBLIC "-//W3C//DTD SVG 20010904//EN" "http://www.w3.org/TR/2001/REC-SVG-20010904/DTD/svg10.dtd">

<svg xmlns="http://www.w3.org/2000/svg"
  width="3.96in" height="3.96in"
  viewBox="0 0 1188 1188">

  <path id="RECT"
    fill="white" stroke="black" stroke-width="15px"
    d="M 199.00,29.00
        C 199.00,29.00 199.00,1156.00 199.00,1156.00
          199.00,1156.00 996.00,1156.00 996.00,1156.00
          996.00,1156.00 996.00,29.00 996.00,29.00
          996.00,29.00 199.00,29.00 199.00,29.00 Z" />


  <path id="TEXT"
    fill="gray" stroke="black" stroke-width="1"
    d="M 297.00,177.53
           C 287.51,180.57 285.64,189.47 291.28,194.35
             294.38,197.04 300.12,197.51 304.00,196.61
             311.53,194.86 313.79,186.33 309.49,181.22
             306.30,177.43 301.57,176.88 297.00,177.53 Z
           M 338.00,177.54
           C 335.67,178.23 333.24,178.91 331.43,180.65
             328.19,183.76 328.15,191.25 331.43,194.35
             334.36,197.12 340.23,197.43 344.00,196.66
             352.60,194.89 353.72,185.96 349.57,181.22
             346.48,177.70 342.38,177.02 338.00,177.54 Z
           M 378.00,177.53
           C 363.86,182.06 367.20,198.01 382.00,196.90
             389.74,196.33 395.58,188.27 390.26,181.34
             387.29,177.46 382.46,176.90 378.00,177.53 Z
           M 425.00,177.53
           C 415.51,180.57 413.64,189.47 419.28,194.35
             422.38,197.04 428.12,197.51 432.00,196.61
             439.53,194.86 441.79,186.33 437.49,181.22
             434.30,177.43 429.57,176.88 425.00,177.53 Z
           M 466.00,177.54
           C 463.67,178.23 461.24,178.91 459.43,180.65
             456.19,183.76 456.15,191.25 459.43,194.35
             462.36,197.12 468.23,197.43 472.00,196.66
             480.60,194.89 481.72,185.96 477.57,181.22
             474.48,177.70 470.38,177.02 466.00,177.54 Z
           M 506.00,177.53
           C 491.86,182.06 495.20,198.01 510.00,196.90
             517.74,196.33 523.58,188.27 518.26,181.34
             515.34,177.53 510.39,176.91 506.00,177.53 Z
           M 553.00,177.53
           C 543.51,180.57 541.64,189.47 547.28,194.35
             550.38,197.04 556.12,197.51 560.00,196.61
             567.53,194.86 569.79,186.33 565.49,181.22
             562.30,177.43 557.57,176.88 553.00,177.53 Z
           M 594.00,177.54
           C 591.67,178.23 589.24,178.91 587.43,180.65
             584.19,183.76 584.15,191.25 587.43,194.35
             590.36,197.12 596.23,197.43 600.00,196.66
             608.60,194.89 609.72,185.96 605.57,181.22
             602.48,177.70 598.38,177.02 594.00,177.54 Z
           M 634.00,177.53
           C 619.86,182.06 623.20,198.01 638.00,196.90
             645.74,196.33 651.58,188.27 646.26,181.34
             643.34,177.53 638.39,176.91 634.00,177.53 Z
           M 681.00,177.53
           C 671.51,180.57 669.64,189.47 675.28,194.35
             678.38,197.04 684.12,197.51 688.00,196.61
             695.53,194.86 697.79,186.33 693.49,181.22
             690.30,177.43 685.57,176.88 681.00,177.53 Z
           M 722.00,177.54
           C 719.67,178.23 717.24,178.91 715.43,180.65
             712.19,183.76 712.15,191.25 715.43,194.35
             718.36,197.12 724.23,197.43 728.00,196.66
             736.60,194.89 737.72,185.96 733.57,181.22
             730.48,177.70 726.38,177.02 722.00,177.54 Z
           M 762.00,177.53
           C 747.86,182.06 751.20,198.01 766.00,196.90
             773.74,196.33 779.58,188.27 774.26,181.34
             771.34,177.53 766.39,176.91 762.00,177.53 Z
           M 809.00,177.53
           C 799.51,180.57 797.64,189.47 803.28,194.35
             806.38,197.04 812.12,197.51 816.00,196.61
             823.53,194.86 825.79,186.33 821.49,181.22
             818.30,177.43 813.57,176.88 809.00,177.53 Z
           M 850.00,177.54
           C 847.67,178.23 845.24,178.91 843.43,180.65
             840.19,183.76 840.15,191.25 843.43,194.35
             846.36,197.12 852.23,197.43 856.00,196.66
             864.60,194.89 865.72,185.96 861.57,181.22
             858.48,177.70 854.38,177.02 850.00,177.54 Z
           M 890.00,177.53
           C 875.86,182.06 879.20,198.01 894.00,196.90
             901.74,196.33 907.58,188.27 902.26,181.34
             899.29,177.46 894.46,176.90 890.00,177.53 Z
           M 297.00,323.53
           C 287.51,326.57 285.64,335.47 291.28,340.35
             294.38,343.04 300.12,343.51 304.00,342.61
             311.53,340.86 313.79,332.33 309.49,327.22
             306.30,323.43 301.57,322.88 297.00,323.53 Z
           M 338.00,323.54
           C 335.67,324.23 333.24,324.91 331.43,326.65
             328.19,329.76 328.15,337.25 331.43,340.35
             334.36,343.12 340.23,343.43 344.00,342.66
             352.60,340.89 353.72,331.96 349.57,327.22
             346.48,323.70 342.38,323.02 338.00,323.54 Z
           M 378.00,323.53
           C 363.86,328.06 367.20,344.01 382.00,342.90
             389.74,342.33 395.58,334.27 390.26,327.34
             387.29,323.46 382.46,322.90 378.00,323.53 Z
           M 425.00,323.53
           C 415.51,326.57 413.64,335.47 419.28,340.35
             422.38,343.04 428.12,343.51 432.00,342.61
             439.53,340.86 441.79,332.33 437.49,327.22
             434.30,323.43 429.57,322.88 425.00,323.53 Z
           M 466.00,323.54
           C 463.67,324.23 461.24,324.91 459.43,326.65
             456.19,329.76 456.15,337.25 459.43,340.35
             462.36,343.12 468.23,343.43 472.00,342.66
             480.60,340.89 481.72,331.96 477.57,327.22
             474.48,323.70 470.38,323.02 466.00,323.54 Z
           M 506.00,323.53
           C 491.86,328.06 495.20,344.01 510.00,342.90
             517.74,342.33 523.58,334.27 518.26,327.34
             515.34,323.53 510.39,322.91 506.00,323.53 Z
           M 553.00,323.53
           C 543.51,326.57 541.64,335.47 547.28,340.35
             550.38,343.04 556.12,343.51 560.00,342.61
             567.53,340.86 569.79,332.33 565.49,327.22
             562.30,323.43 557.57,322.88 553.00,323.53 Z
           M 594.00,323.54
           C 591.67,324.23 589.24,324.91 587.43,326.65
             584.19,329.76 584.15,337.25 587.43,340.35
             590.36,343.12 596.23,343.43 600.00,342.66
             608.60,340.89 609.72,331.96 605.57,327.22
             602.48,323.70 598.38,323.02 594.00,323.54 Z
           M 634.00,323.53
           C 619.86,328.06 623.20,344.01 638.00,342.90
             645.74,342.33 651.58,334.27 646.26,327.34
             643.34,323.53 638.39,322.91 634.00,323.53 Z
           M 681.00,323.53
           C 671.51,326.57 669.64,335.47 675.28,340.35
             678.38,343.04 684.12,343.51 688.00,342.61
             695.53,340.86 697.79,332.33 693.49,327.22
             690.30,323.43 685.57,322.88 681.00,323.53 Z
           M 722.00,323.54
           C 719.67,324.23 717.24,324.91 715.43,326.65
             712.19,329.76 712.15,337.25 715.43,340.35
             718.36,343.12 724.23,343.43 728.00,342.66
             736.60,340.89 737.72,331.96 733.57,327.22
             730.48,323.70 726.38,323.02 722.00,323.54 Z
           M 762.00,323.53
           C 747.86,328.06 751.20,344.01 766.00,342.90
             773.74,342.33 779.58,334.27 774.26,327.34
             771.34,323.53 766.39,322.91 762.00,323.53 Z
           M 809.00,323.53
           C 799.51,326.57 797.64,335.47 803.28,340.35
             806.38,343.04 812.12,343.51 816.00,342.61
             823.53,340.86 825.79,332.33 821.49,327.22
             818.30,323.43 813.57,322.88 809.00,323.53 Z
           M 850.00,323.54
           C 847.67,324.23 845.24,324.91 843.43,326.65
             840.19,329.76 840.15,337.25 843.43,340.35
             846.36,343.12 852.23,343.43 856.00,342.66
             864.60,340.89 865.72,331.96 861.57,327.22
             858.48,323.70 854.38,323.02 850.00,323.54 Z
           M 890.00,323.53
           C 875.86,328.06 879.20,344.01 894.00,342.90
             901.74,342.33 907.58,334.27 902.26,327.34
             899.29,323.46 894.46,322.90 890.00,323.53 Z
           M 297.00,469.53
           C 287.51,472.57 285.64,481.47 291.28,486.35
             294.38,489.04 300.12,489.51 304.00,488.61
             311.53,486.86 313.79,478.33 309.49,473.22
             306.30,469.43 301.57,468.88 297.00,469.53 Z
           M 338.00,469.54
           C 335.67,470.23 333.24,470.91 331.43,472.65
             328.19,475.76 328.15,483.25 331.43,486.35
             334.36,489.12 340.23,489.43 344.00,488.66
             352.60,486.89 353.72,477.96 349.57,473.22
             346.48,469.70 342.38,469.02 338.00,469.54 Z
           M 378.00,469.53
           C 363.86,474.06 367.20,490.01 382.00,488.90
             389.74,488.33 395.58,480.27 390.26,473.34
             387.29,469.46 382.46,468.90 378.00,469.53 Z
           M 425.00,469.53
           C 415.51,472.57 413.64,481.47 419.28,486.35
             422.38,489.04 428.12,489.51 432.00,488.61
             439.53,486.86 441.79,478.33 437.49,473.22
             434.30,469.43 429.57,468.88 425.00,469.53 Z
           M 466.00,469.54
           C 463.67,470.23 461.24,470.91 459.43,472.65
             456.19,475.76 456.15,483.25 459.43,486.35
             462.36,489.12 468.23,489.43 472.00,488.66
             480.60,486.89 481.72,477.96 477.57,473.22
             474.48,469.70 470.38,469.02 466.00,469.54 Z
           M 506.00,469.53
           C 491.86,474.06 495.20,490.01 510.00,488.90
             517.74,488.33 523.58,480.27 518.26,473.34
             515.34,469.53 510.39,468.91 506.00,469.53 Z
           M 553.00,469.53
           C 543.51,472.57 541.64,481.47 547.28,486.35
             550.38,489.04 556.12,489.51 560.00,488.61
             567.53,486.86 569.79,478.33 565.49,473.22
             562.30,469.43 557.57,468.88 553.00,469.53 Z
           M 594.00,469.54
           C 591.67,470.23 589.24,470.91 587.43,472.65
             584.19,475.76 584.15,483.25 587.43,486.35
             590.36,489.12 596.23,489.43 600.00,488.66
             608.60,486.89 609.72,477.96 605.57,473.22
             602.48,469.70 598.38,469.02 594.00,469.54 Z
           M 634.00,469.53
           C 619.86,474.06 623.20,490.01 638.00,488.90
             645.74,488.33 651.58,480.27 646.26,473.34
             643.34,469.53 638.39,468.91 634.00,469.53 Z
           M 681.00,469.53
           C 671.51,472.57 669.64,481.47 675.28,486.35
             678.38,489.04 684.12,489.51 688.00,488.61
             695.53,486.86 697.79,478.33 693.49,473.22
             690.30,469.43 685.57,468.88 681.00,469.53 Z
           M 722.00,469.54
           C 719.67,470.23 717.24,470.91 715.43,472.65
             712.19,475.76 712.15,483.25 715.43,486.35
             718.36,489.12 724.23,489.43 728.00,488.66
             736.60,486.89 737.72,477.96 733.57,473.22
             730.48,469.70 726.38,469.02 722.00,469.54 Z
           M 762.00,469.53
           C 747.86,474.06 751.20,490.01 766.00,488.90
             773.74,488.33 779.58,480.27 774.26,473.34
             771.34,469.53 766.39,468.91 762.00,469.53 Z
           M 809.00,469.53
           C 799.51,472.57 797.64,481.47 803.28,486.35
             806.38,489.04 812.12,489.51 816.00,488.61
             823.53,486.86 825.79,478.33 821.49,473.22
             818.30,469.43 813.57,468.88 809.00,469.53 Z
           M 850.00,469.54
           C 847.67,470.23 845.24,470.91 843.43,472.65
             840.19,475.76 840.15,483.25 843.43,486.35
             846.36,489.12 852.23,489.43 856.00,488.66
             864.60,486.89 865.72,477.96 861.57,473.22
             858.48,469.70 854.38,469.02 850.00,469.54 Z
           M 890.00,469.53
           C 875.86,474.06 879.20,490.01 894.00,488.90
             901.74,488.33 907.58,480.27 902.26,473.34
             899.29,469.46 894.46,468.90 890.00,469.53 Z
           M 297.00,615.53
           C 287.51,618.57 285.64,627.47 291.28,632.35
             294.38,635.04 300.12,635.51 304.00,634.61
             311.53,632.86 313.79,624.33 309.49,619.22
             306.30,615.43 301.57,614.88 297.00,615.53 Z
           M 338.00,615.54
           C 335.67,616.23 333.24,616.91 331.43,618.65
             328.19,621.76 328.15,629.25 331.43,632.35
             334.36,635.12 340.23,635.43 344.00,634.66
             352.60,632.89 353.72,623.96 349.57,619.22
             346.48,615.70 342.38,615.02 338.00,615.54 Z
           M 378.00,615.53
           C 363.86,620.06 367.20,636.01 382.00,634.90
             389.74,634.33 395.58,626.27 390.26,619.34
             387.29,615.46 382.46,614.90 378.00,615.53 Z
           M 425.00,615.53
           C 415.51,618.57 413.64,627.47 419.28,632.35
             422.38,635.04 428.12,635.51 432.00,634.61
             439.53,632.86 441.79,624.33 437.49,619.22
             434.30,615.43 429.57,614.88 425.00,615.53 Z
           M 466.00,615.54
           C 463.67,616.23 461.24,616.91 459.43,618.65
             456.19,621.76 456.15,629.25 459.43,632.35
             462.36,635.12 468.23,635.43 472.00,634.66
             480.60,632.89 481.72,623.96 477.57,619.22
             474.48,615.70 470.38,615.02 466.00,615.54 Z
           M 506.00,615.53
           C 491.86,620.06 495.20,636.01 510.00,634.90
             517.74,634.33 523.58,626.27 518.26,619.34
             515.29,615.46 510.46,614.90 506.00,615.53 Z
           M 553.00,615.53
           C 543.51,618.57 541.64,627.47 547.28,632.35
             550.38,635.04 556.12,635.51 560.00,634.61
             567.53,632.86 569.79,624.33 565.49,619.22
             562.30,615.43 557.57,614.88 553.00,615.53 Z
           M 594.00,615.54
           C 591.67,616.23 589.24,616.91 587.43,618.65
             584.19,621.76 584.15,629.25 587.43,632.35
             590.36,635.12 596.23,635.43 600.00,634.66
             608.60,632.89 609.72,623.96 605.57,619.22
             602.48,615.70 598.38,615.02 594.00,615.54 Z
           M 634.00,615.53
           C 619.86,620.06 623.20,636.01 638.00,634.90
             645.74,634.33 651.58,626.27 646.26,619.34
             643.29,615.46 638.46,614.90 634.00,615.53 Z
           M 661.00,822.00
           C 658.02,817.59 655.43,813.81 651.00,810.64
             645.54,806.73 638.62,805.07 632.00,805.00
             612.43,804.80 598.30,816.08 588.09,832.00
             569.02,861.73 564.60,908.37 565.00,943.00
             565.28,967.00 575.48,997.66 604.00,998.00
             610.58,998.07 614.79,998.29 621.00,995.48
             628.26,992.20 633.48,986.52 639.00,981.00
             639.00,981.00 638.00,995.00 638.00,995.00
             638.00,995.00 667.00,995.00 667.00,995.00
             667.00,995.00 674.27,945.00 674.27,945.00
             674.27,945.00 689.27,839.00 689.27,839.00
             689.27,839.00 699.15,769.00 699.15,769.00
             699.15,769.00 703.00,737.00 703.00,737.00
             703.00,737.00 681.00,737.00 681.00,737.00
             679.05,737.00 675.29,736.74 673.74,737.99
             671.47,739.83 670.35,753.52 669.87,757.00
             669.87,757.00 661.00,822.00 661.00,822.00 Z
           M 407.00,823.00
           C 405.26,816.87 406.20,814.06 407.00,808.00
             407.00,808.00 386.00,808.00 386.00,808.00
             386.00,808.00 378.02,809.60 378.02,809.60
             378.02,809.60 375.73,821.00 375.73,821.00
             375.73,821.00 371.42,851.00 371.42,851.00
             371.42,851.00 358.73,940.00 358.73,940.00
             358.73,940.00 353.73,975.00 353.73,975.00
             353.73,975.00 351.00,995.00 351.00,995.00
             351.00,995.00 382.00,995.00 382.00,995.00
             382.00,995.00 391.72,927.00 391.72,927.00
             391.72,927.00 399.92,869.00 399.92,869.00
             402.11,856.02 410.77,834.39 426.00,833.11
             438.66,832.04 442.87,842.41 443.68,853.00
             443.68,853.00 437.27,902.00 437.27,902.00
             437.27,902.00 424.00,995.00 424.00,995.00
             424.00,995.00 447.00,995.00 447.00,995.00
             449.31,995.00 453.40,995.38 454.98,993.40
             456.06,992.05 456.72,985.07 457.00,983.00
             457.00,983.00 460.73,957.00 460.73,957.00
             460.73,957.00 469.87,892.00 469.87,892.00
             471.84,877.84 472.77,862.93 479.37,850.00
             483.80,841.33 491.48,832.69 502.00,833.06
             506.21,833.20 509.69,834.89 512.36,838.18
             513.69,839.82 514.75,842.02 515.45,844.00
             516.57,847.12 516.91,849.71 516.99,853.00
             516.99,853.00 512.42,890.00 512.42,890.00
             512.42,890.00 506.42,932.00 506.42,932.00
             506.42,932.00 497.00,995.00 497.00,995.00
             497.00,995.00 529.00,995.00 529.00,995.00
             529.00,995.00 534.73,953.00 534.73,953.00
             534.73,953.00 544.27,885.00 544.27,885.00
             544.27,885.00 549.00,848.00 549.00,848.00
             549.15,835.11 547.39,821.33 536.96,812.33
             518.03,795.99 482.45,807.64 475.00,831.00
             471.37,823.92 470.63,817.93 463.96,812.53
             447.74,799.39 416.14,803.66 407.00,823.00 Z
           M 406.00,823.00
           C 406.00,823.00 406.00,824.00 406.00,824.00
             406.00,824.00 405.00,823.00 405.00,823.00
             405.00,823.00 406.00,823.00 406.00,823.00 Z
           M 631.00,833.33
           C 648.56,831.54 654.03,847.43 654.79,862.00
             654.79,862.00 650.27,895.00 650.27,895.00
             647.95,911.09 646.25,933.67 639.69,948.00
             635.83,956.43 629.05,968.21 619.00,969.79
             592.47,973.95 596.81,939.39 597.00,923.00
             597.21,905.28 603.31,869.89 610.78,854.00
             615.30,844.39 620.02,836.03 631.00,833.33 Z
           M 299.00,952.53
           C 286.96,956.13 281.14,965.85 281.00,978.00
             280.88,988.98 284.46,997.62 297.00,997.80
             299.19,998.05 302.93,998.06 305.00,997.80
             320.79,994.18 329.71,966.44 316.82,955.56
             311.89,951.40 305.01,951.55 299.00,952.53 Z" />
</svg>